# xmcd
# 
# Track frame offsets:
#     150
#     17045
#     36290
#     54645
#     70915
#     90720
#     107990
#     123740
#     143735
#     153520
#     170720
#     187950
#     204045
#     216600
#     237405
#     251365
#     268725
#     285365
#     299550
#     312435
# 
# Disc length: 4455
# 
# Revision: 1
# Processed by: cddbd v1.5.2PL0 Copyright (c) Steve Scherf et al.
# Submitted via: fre:ac v1.0.31
# 
DISCID=37116514
DTITLE=Petardeo - De Marisol a Pepa Flores CD 2
DYEAR=1999
DGENRE=Country
TTITLE0=Háblame del mar, marinero
TTITLE1=Niña
TTITLE2=Ser gaviota
TTITLE3=Mañana marcharé
TTITLE4=Tengo ganas
TTITLE5=Ven, ven
TTITLE6=Y ahora que te has ido
TTITLE7=Paloma negra
TTITLE8=Tu nombre me sabe a yerba
TTITLE9=Ayúdame a pasar la noche
TTITLE10=Dile que vuelva
TTITLE11=Zamba de mi esperanza
TTITLE12=En la bodega del barco
TTITLE13=Balada para la soledad de mi guitarra
TTITLE14=Ay de tí, ay de mí
TTITLE15=Comprada
TTITLE16=Mirándome
TTITLE17=Quiero perderme en tu cuerpo
TTITLE18=La trenza
TTITLE19=Una mujer enamorada
EXTD=YEAR: 1999
EXTT0=
EXTT1=
EXTT2=
EXTT3=
EXTT4=
EXTT5=
EXTT6=
EXTT7=
EXTT8=
EXTT9=
EXTT10=
EXTT11=
EXTT12=
EXTT13=
EXTT14=
EXTT15=
EXTT16=
EXTT17=
EXTT18=
EXTT19=
PLAYORDER=
